# xmcd
#
# Track frame offsets: 
#        150
#        24516
#        42978
#        62331
#        78675
#
# Disc length: 1324 seconds
#
# Revision: 0
# Processed by: cddbd v1.5.2PL0 Copyright (c) Steve Scherf et al.
# Submitted via: ExactAudioCopyFreeDBPlugin 1.0
#
DISCID=36052a05
DTITLE=the Halley DeVestern Band - Keep on playin
DYEAR=2017
DGENRE=Blues
TTITLE0=Keep on Playin
TTITLE1=Time for You to Light Things
TTITLE2=Bangin'
TTITLE3=Song in You
TTITLE4=Hit Twice
EXTD=
EXTT0=
EXTT1=
EXTT2=
EXTT3=
EXTT4=
PLAYORDER=
